HIERARCHY
ROOT Root
{
  OFFSET 0 0 0
  CHANNELS 6 Xposition Yposition Zposition Zrotation Xrotation Yrotation
  JOINT Joint1
  {
    OFFSET 0 10 0
    CHANNELS 3 Zrotation Xrotation Yrotation
    End Site
    {
      OFFSET 0.0 0.0 0.0
    }
  }
}
MOTION
Frames: 90
Frame Time: 0.033333
0.0 0.0 0.0 0.0 0.0 0.0 0.0 0.0 0.0
0.0 0.0 0.0 0.0 0.0 0.0 0.0 1.0112359550561798 0.0
0.0 0.0 0.0 0.0 0.0 0.0 0.0 2.0224719101123596 0.0
0.0 0.0 0.0 0.0 0.0 0.0 0.0 3.033707865168539 0.0
0.0 0.0 0.0 0.0 0.0 0.0 0.0 4.044943820224719 0.0
0.0 0.0 0.0 0.0 0.0 0.0 0.0 5.056179775280899 0.0
0.0 0.0 0.0 0.0 0.0 0.0 0.0 6.067415730337078 0.0
0.0 0.0 0.0 0.0 0.0 0.0 0.0 7.078651685393258 0.0
0.0 0.0 0.0 0.0 0.0 0.0 0.0 8.089887640449438 0.0
0.0 0.0 0.0 0.0 0.0 0.0 0.0 9.101123595505618 0.0
0.0 0.0 0.0 0.0 0.0 0.0 0.0 10.112359550561798 0.0
0.0 0.0 0.0 0.0 0.0 0.0 0.0 11.123595505617978 0.0
0.0 0.0 0.0 0.0 0.0 0.0 0.0 12.134831460674157 0.0
0.0 0.0 0.0 0.0 0.0 0.0 0.0 13.146067415730338 0.0
0.0 0.0 0.0 0.0 0.0 0.0 0.0 14.157303370786517 0.0
0.0 0.0 0.0 0.0 0.0 0.0 0.0 15.168539325842696 0.0
0.0 0.0 0.0 0.0 0.0 0.0 0.0 16.179775280898877 0.0
0.0 0.0 0.0 0.0 0.0 0.0 0.0 17.191011235955056 0.0
0.0 0.0 0.0 0.0 0.0 0.0 0.0 18.202247191011235 0.0
0.0 0.0 0.0 0.0 0.0 0.0 0.0 19.213483146067414 0.0
0.0 0.0 0.0 0.0 0.0 0.0 0.0 20.224719101123597 0.0
0.0 0.0 0.0 0.0 0.0 0.0 0.0 21.235955056179776 0.0
0.0 0.0 0.0 0.0 0.0 0.0 0.0 22.247191011235955 0.0
0.0 0.0 0.0 0.0 0.0 0.0 0.0 23.258426966292134 0.0
0.0 0.0 0.0 0.0 0.0 0.0 0.0 24.269662921348313 0.0
0.0 0.0 0.0 0.0 0.0 0.0 0.0 25.280898876404493 0.0
0.0 0.0 0.0 0.0 0.0 0.0 0.0 26.292134831460675 0.0
0.0 0.0 0.0 0.0 0.0 0.0 0.0 27.303370786516854 0.0
0.0 0.0 0.0 0.0 0.0 0.0 0.0 28.314606741573034 0.0
0.0 0.0 0.0 0.0 0.0 0.0 0.0 29.325842696629213 0.0
0.0 0.0 0.0 0.0 0.0 0.0 0.0 30.337078651685392 0.0
0.0 0.0 0.0 0.0 0.0 0.0 0.0 31.348314606741575 0.0
0.0 0.0 0.0 0.0 0.0 0.0 0.0 32.359550561797754 0.0
0.0 0.0 0.0 0.0 0.0 0.0 0.0 33.37078651685393 0.0
0.0 0.0 0.0 0.0 0.0 0.0 0.0 34.38202247191011 0.0
0.0 0.0 0.0 0.0 0.0 0.0 0.0 35.39325842696629 0.0
0.0 0.0 0.0 0.0 0.0 0.0 0.0 36.40449438202247 0.0
0.0 0.0 0.0 0.0 0.0 0.0 0.0 37.41573033707865 0.0
0.0 0.0 0.0 0.0 0.0 0.0 0.0 38.42696629213483 0.0
0.0 0.0 0.0 0.0 0.0 0.0 0.0 39.438202247191015 0.0
0.0 0.0 0.0 0.0 0.0 0.0 0.0 40.449438202247194 0.0
0.0 0.0 0.0 0.0 0.0 0.0 0.0 41.46067415730337 0.0
0.0 0.0 0.0 0.0 0.0 0.0 0.0 42.47191011235955 0.0
0.0 0.0 0.0 0.0 0.0 0.0 0.0 43.48314606741573 0.0
0.0 0.0 0.0 0.0 0.0 0.0 0.0 44.49438202247191 0.0
0.0 0.0 0.0 0.0 0.0 0.0 0.0 45.50561797752809 0.0
0.0 0.0 0.0 0.0 0.0 0.0 0.0 46.51685393258427 0.0
0.0 0.0 0.0 0.0 0.0 0.0 0.0 47.52808988764045 0.0
0.0 0.0 0.0 0.0 0.0 0.0 0.0 48.53932584269663 0.0
0.0 0.0 0.0 0.0 0.0 0.0 0.0 49.550561797752806 0.0
0.0 0.0 0.0 0.0 0.0 0.0 0.0 50.561797752808985 0.0
0.0 0.0 0.0 0.0 0.0 0.0 0.0 51.57303370786517 0.0
0.0 0.0 0.0 0.0 0.0 0.0 0.0 52.58426966292135 0.0
0.0 0.0 0.0 0.0 0.0 0.0 0.0 53.59550561797753 0.0
0.0 0.0 0.0 0.0 0.0 0.0 0.0 54.60674157303371 0.0
0.0 0.0 0.0 0.0 0.0 0.0 0.0 55.61797752808989 0.0
0.0 0.0 0.0 0.0 0.0 0.0 0.0 56.62921348314607 0.0
0.0 0.0 0.0 0.0 0.0 0.0 0.0 57.640449438202246 0.0
0.0 0.0 0.0 0.0 0.0 0.0 0.0 58.651685393258425 0.0
0.0 0.0 0.0 0.0 0.0 0.0 0.0 59.662921348314605 0.0
0.0 0.0 0.0 0.0 0.0 0.0 0.0 60.674157303370784 0.0
0.0 0.0 0.0 0.0 0.0 0.0 0.0 61.68539325842696 0.0
0.0 0.0 0.0 0.0 0.0 0.0 0.0 62.69662921348315 0.0
0.0 0.0 0.0 0.0 0.0 0.0 0.0 63.70786516853933 0.0
0.0 0.0 0.0 0.0 0.0 0.0 0.0 64.71910112359551 0.0
0.0 0.0 0.0 0.0 0.0 0.0 0.0 65.73033707865169 0.0
0.0 0.0 0.0 0.0 0.0 0.0 0.0 66.74157303370787 0.0
0.0 0.0 0.0 0.0 0.0 0.0 0.0 67.75280898876404 0.0
0.0 0.0 0.0 0.0 0.0 0.0 0.0 68.76404494382022 0.0
0.0 0.0 0.0 0.0 0.0 0.0 0.0 69.7752808988764 0.0
0.0 0.0 0.0 0.0 0.0 0.0 0.0 70.78651685393258 0.0
0.0 0.0 0.0 0.0 0.0 0.0 0.0 71.79775280898876 0.0
0.0 0.0 0.0 0.0 0.0 0.0 0.0 72.80898876404494 0.0
0.0 0.0 0.0 0.0 0.0 0.0 0.0 73.82022471910112 0.0
0.0 0.0 0.0 0.0 0.0 0.0 0.0 74.8314606741573 0.0
0.0 0.0 0.0 0.0 0.0 0.0 0.0 75.84269662921348 0.0
0.0 0.0 0.0 0.0 0.0 0.0 0.0 76.85393258426966 0.0
0.0 0.0 0.0 0.0 0.0 0.0 0.0 77.86516853932584 0.0
0.0 0.0 0.0 0.0 0.0 0.0 0.0 78.87640449438203 0.0
0.0 0.0 0.0 0.0 0.0 0.0 0.0 79.88764044943821 0.0
0.0 0.0 0.0 0.0 0.0 0.0 0.0 80.89887640449439 0.0
0.0 0.0 0.0 0.0 0.0 0.0 0.0 81.91011235955057 0.0
0.0 0.0 0.0 0.0 0.0 0.0 0.0 82.92134831460675 0.0
0.0 0.0 0.0 0.0 0.0 0.0 0.0 83.93258426966293 0.0
0.0 0.0 0.0 0.0 0.0 0.0 0.0 84.9438202247191 0.0
0.0 0.0 0.0 0.0 0.0 0.0 0.0 85.95505617977528 0.0
0.0 0.0 0.0 0.0 0.0 0.0 0.0 86.96629213483146 0.0
0.0 0.0 0.0 0.0 0.0 0.0 0.0 87.97752808988764 0.0
0.0 0.0 0.0 0.0 0.0 0.0 0.0 88.98876404494382 0.0
0.0 0.0 0.0 0.0 0.0 0.0 0.0 90 0.0
